<svg width="102" height="104" viewBox="0 0 102 104" fill="none" xmlns="http://www.w3.org/2000/svg">
<g clip-path="url(#clip0_42_9)">
<path d="M41.14 35.16C42.51 27.86 43.73 21.37 45.22 13.5L53.04 33.92L88.17 0L89 0.579987L61.73 42.79L101.31 52.01L101.21 52.81L60.03 55.05C61.9 62.05 63.64 68.47 65.38 74.93L64.68 75.54L49.68 61.35L25.96 103.1L25.23 102.82C29.42 87.82 33.61 72.77 38.03 56.95L15.86 57.95L34.35 45.57L0 14.16L0.479996 13.51L41.14 35.16ZM46.65 23.42L45.74 23.51C44.74 28.3 43.82 33.1 42.74 38.51L16.56 24.63L15.9 25.63L37.9 45.88L24.26 55.06H40.75C37.94 65.21 35.21 75.06 32.49 84.89L33.49 85.27L49.14 57.79L60.14 68.21L61.05 67.71L57.21 53.18L84.84 51.53V50.47L58.25 44.3C64.4 34.65 70.25 25.55 76.02 16.45L73.96 14.64L52.73 39.14C50.22 32.62 48.45 28.02 46.67 23.42H46.65Z" fill="#606380"/>
</g>
<defs>
<clipPath id="clip0_42_9">
<rect width="101.31" height="103.1" fill="white"/>
</clipPath>
</defs>
</svg>
