<svg width="217" height="197" viewBox="0 0 217 197" fill="none" xmlns="http://www.w3.org/2000/svg">
<path d="M84.0083 169.386C82.288 156.66 80.5911 143.918 78.9176 131.16C75.9852 108.76 61.0181 93.592 38.5674 90.3047C25.5771 88.8553 12.6944 86.5651 0 83.4484C10.4395 81.9926 20.8789 80.2786 31.3653 79.0811C61.4403 75.6765 75.0703 62.6448 79.4807 32.7309C80.7338 21.6958 82.8119 10.7703 85.6974 0.0462646C87.2692 11.2464 88.9817 22.423 90.3893 33.6231C93.6267 60.4377 108.969 75.7469 135.901 78.9167C147.17 79.9307 158.313 82.0542 169.166 85.2564C156.709 86.947 144.252 88.5202 131.842 90.3281C108.101 93.8032 93.2748 109.277 90.5301 132.945C89.1225 145.178 87.3161 157.365 85.674 169.551L84.0083 169.386ZM129.191 84.3642C105.896 78.1654 91.0696 64.265 84.8763 40.3151C79.1991 64.4763 63.4109 77.7427 38.1686 84.7398C64.7012 90.2107 78.7065 104.698 85.0875 131.09C91.3277 104.205 105.755 89.9525 129.168 84.3642H129.191Z" fill="#606380"/>
<path d="M216.976 153.374C208.132 156.05 192.555 156.45 184.297 164.409C176.04 172.369 175.547 187.772 172.568 197C169.541 187.608 168.884 172.017 160.838 164.128C152.791 156.238 136.956 155.933 125.25 152.505C166.374 145.696 165.436 151.894 171.864 106.366C175.594 118.388 176.016 133.885 183.992 141.586C191.969 149.288 207.733 150.462 216.976 153.374ZM185.376 151.542L183.969 156.238L172.99 142.408L161.729 152.669L172.919 164.902L185.376 151.542Z" fill="#606380"/>
</svg>
