<svg width="116" height="122" viewBox="0 0 116 122" fill="none" xmlns="http://www.w3.org/2000/svg">
<g clip-path="url(#clip0_42_13)">
<path d="M45.38 -1.52588e-05C47.31 11.78 49.38 23.54 51.07 35.35C51.51 38.35 52.45 39.57 55.54 40.02C67.37 41.75 79.15 43.81 91.08 46.54C87.82 47.11 84.58 47.74 81.32 48.24C72.77 49.55 64.22 50.91 55.65 52.03C52.65 52.41 51.47 53.57 51.05 56.64C49.65 67.01 47.9 77.34 46.23 87.64C45.97 89.2 45.44 90.72 44.73 93.41C42.78 80.51 40.83 68.87 39.35 57.16C38.88 53.44 37.35 52.16 33.87 51.66C23.97 50.38 14.11 48.8 4.23999 47.31C2.71698 47.1521 1.25855 46.6121 0 45.74C11.07 43.98 22.12 42.09 33.21 40.52C36.98 39.99 38.91 38.89 39.4 34.52C40.74 22.97 42.75 11.52 44.5 -1.52588e-05H45.38ZM45.47 14.55L44.47 14.64C43.31 22.19 41.99 29.72 41.06 37.3C40.67 40.5 39.35 41.84 36.19 42.3C29.19 43.3 22.19 44.53 15.12 45.67C21.9401 47.748 28.9412 49.1776 36.03 49.94C39.52 50.34 40.78 51.77 41.18 55.17C42.04 62.57 43.35 69.92 44.47 77.28C46.6611 70.06 48.194 62.6565 49.05 55.16C49.46 51.55 50.98 50.55 54.34 50.16C61.69 49.28 68.98 47.9 76.29 46.73C70.7123 44.965 65.0001 43.6573 59.21 42.82C49.61 41.15 49.66 41.13 48.21 31.54C47.43 25.83 46.41 20.2 45.47 14.55Z" fill="#606380"/>
<path d="M82.71 54.94C83.91 62.57 85.25 70.19 86.24 77.85C86.73 81.6 87.87 83.67 92.16 84.12C100.17 85.0084 108.101 86.5129 115.88 88.62C107.97 89.86 100.08 91.38 92.13 92.24C88.2 92.66 86.75 94.24 86.28 97.98C85.3537 105.839 83.7988 113.61 81.63 121.22C80.49 113.57 79.26 105.93 78.26 98.22C77.78 94.54 76.73 92.46 72.26 92.08C64.5356 91.2956 56.8937 89.8435 49.42 87.74C57.42 86.47 65.49 85.1 73.55 83.99C76.34 83.6 77.49 82.41 77.86 79.63C78.96 71.41 80.32 63.22 81.57 55.02L82.71 54.94ZM81.6 105.82H82.88C83.49 102.11 84.21 98.42 84.68 94.7C85.02 92.01 86.05 90.7 89.03 90.45C93.11 90.14 97.15 89.2 101.2 88.53C97.4465 87.0161 93.4845 86.0821 89.45 85.76C86.01 85.55 84.97 83.85 84.58 80.87C84.09 77.1 83.36 73.37 82.73 69.62C81.2423 73.4262 80.2932 77.4214 79.91 81.49C79.58 84.13 78.58 85.57 75.6 85.8C71.84 86.09 68.13 87.03 64.4 87.68C67.9258 89.1664 71.6661 90.0813 75.48 90.39C78.41 90.61 79.55 91.88 79.88 94.6C80.34 98.39 81.02 102.08 81.6 105.82Z" fill="#606380"/>
</g>
<defs>
<clipPath id="clip0_42_13">
<rect width="115.88" height="121.22" fill="white"/>
</clipPath>
</defs>
</svg>
